<?xml version="1.0" encoding="UTF-8"?><svg id="Layer_1" xmlns="http://www.w3.org/2000/svg" viewBox="0 0 549 112.5"><polygon points="25 81.5 38 81.5 38 62.7 67.7 62.7 67.7 51.9 38 51.9 38 38.5 72.9 38.5 72.9 27.8 25 27.8 25 81.5" style="fill:#fff;"/><path d="M123.5,59.5c0,7.8-7.1,11.7-14.2,11.7s-14.2-3.9-14.2-11.7v-31.8h-13v31.8c0,15.9,13.6,23.9,27.2,23.9s27.2-8,27.2-23.9v-31.8h-13v31.8Z" style="fill:#fff;"/><polygon points="158.7 27.8 145.7 27.8 145.7 81.5 193.1 81.5 193.1 70.6 158.7 70.6 158.7 27.8" style="fill:#fff;"/><polygon points="194 54.6 194 54.6 194 54.6 194 54.6" style="fill:#fff;"/><path d="M224.6,38.4c5.9,0,12.2,3.4,15.6,7.7l9.6-8.4c-5.8-7.4-15-11.8-25.7-11.8s-30.1,9.7-30.1,28.6c0,18.9,16.2,28.6,30,28.6s19.9-4.8,25.8-12l-9.6-8.4c-3.3,4.2-8.1,7.9-15.6,7.9-11.4,0-17.2-8-17.2-16.1s5.8-16.2,17.2-16.2Z" style="fill:#fff;"/><path d="M358,59.5c0,7.8-7.1,11.7-14.2,11.7s-14.2-3.9-14.2-11.7v-31.8h-13v31.8c0,15.9,13.6,23.9,27.2,23.9s27.2-8,27.2-23.9v-31.8h-13v31.8Z" style="fill:#fff;"/><polygon points="434.8 27.8 414 64 393.2 27.8 380.2 27.8 380.2 27.8 380.2 81.5 393.2 81.5 393.2 49.5 411.5 81.5 416.4 81.5 434.8 49.5 434.8 81.5 447.8 81.5 447.8 27.8 434.8 27.8" style="fill:#fff;"/><path d="M296.7,60.2c7.2-2.5,10.8-9.1,10.8-15.6s-5.8-16.8-17.7-16.8h-32.4v11.4h0v42.3h13v-20.2h12.4l10.9,20.2h14.7l-11.7-21.2h0ZM287.7,50.5h0s-17.2,0-17.2,0v-12h17.2c4.9,0,7.4,3,7.4,6s-2.5,6-7.4,6Z" style="fill:#fff;"/><polygon points="449.9 81.4 468.6 81.4 459.3 65.3 449.9 81.4" style="fill:#fff;"/><path d="M523.2,53.8h0c0-19.3-16.5-28.8-30.5-28.8s-30.7,9.4-30.7,28.7,16.5,28.6,30.7,28.6,5.1-.3,7.7-.9l3.5,6h16l-6.9-11.9c6-4.7,10.3-12,10.3-21.8ZM492.6,70c-8.1,0-17.4-5.3-17.4-16.3s9.4-16.3,17.4-16.3,17.4,5.4,17.4,16.3-9.4,16.3-17.4,16.3Z" style="fill:#fff;"/></svg>